<svg width="280" height="52" viewBox="0 0 280 52" fill="none" xmlns="http://www.w3.org/2000/svg">
<rect width="220" height="52" fill="#FFD369"/>
<rect x="220" width="60" height="52" fill="black"/>
<path d="M263.411 19.06C263.251 18.468 262.939 17.9283 262.506 17.4948C262.072 17.0614 261.533 16.7493 260.941 16.59C258.761 16 250.001 16 250.001 16C250.001 16 241.241 16 239.061 16.59C238.469 16.7493 237.929 17.0614 237.496 17.4948C237.062 17.9283 236.75 18.468 236.591 19.06C236.184 21.2833 235.986 23.5398 236.001 25.8C235.986 28.0602 236.184 30.3167 236.591 32.54C236.75 33.132 237.062 33.6717 237.496 34.1052C237.929 34.5386 238.469 34.8507 239.061 35.01C241.241 35.6 250.001 35.6 250.001 35.6C250.001 35.6 258.761 35.6 260.941 35.01C261.533 34.8507 262.072 34.5386 262.506 34.1052C262.939 33.6717 263.251 33.132 263.411 32.54C263.818 30.3167 264.015 28.0602 264.001 25.8C264.015 23.5398 263.818 21.2833 263.411 19.06V19.06ZM247.201 30V21.6L254.471 25.8L247.201 30Z" fill="white"/>
<path d="M26.98 17.94H24.44L23.78 22.78L23.46 25.48L23.12 22.78L22.5 17.94H19.96L22.26 27.38V34H24.68V27.38L26.98 17.94ZM27.9969 20.74V31.2C27.9969 33.36 28.8569 34.2 31.2769 34.2H31.3169C33.7369 34.2 34.5969 33.34 34.5969 31.2V20.74C34.5969 18.58 33.7369 17.74 31.3169 17.74H31.2769C28.8769 17.74 27.9969 18.6 27.9969 20.74ZM31.2769 19.72H31.3169C31.8369 19.72 32.1769 19.92 32.1769 20.54V31.4C32.1769 32.04 31.8169 32.22 31.3169 32.22H31.2769C30.7969 32.22 30.4169 32.04 30.4169 31.4V20.54C30.4169 19.9 30.7969 19.72 31.2769 19.72ZM36.66 17.94V31.2C36.66 33.36 37.5 34.2 39.84 34.2H39.88C42.22 34.2 43.06 33.34 43.06 31.2V17.94H40.64V31.4C40.64 32.04 40.32 32.22 39.88 32.22H39.84C39.4 32.22 39.08 32.04 39.08 31.4V17.94H36.66ZM51.205 17.94H49.045H46.625H44.465V19.86H46.625V34H49.045V19.86H51.205V17.94ZM52.5967 17.94V31.2C52.5967 33.36 53.4367 34.2 55.7767 34.2H55.8167C58.1567 34.2 58.9967 33.34 58.9967 31.2V17.94H56.5767V31.4C56.5767 32.04 56.2567 32.22 55.8167 32.22H55.7767C55.3367 32.22 55.0167 32.04 55.0167 31.4V17.94H52.5967ZM66.5417 25.64C67.3417 25.18 67.6617 24.34 67.6617 23.02V20.94C67.6617 18.78 66.8217 17.94 64.5017 17.94H61.1617V34H64.7217C67.0617 34 67.9017 33.14 67.9017 31V28.38C67.9017 26.92 67.5017 26.06 66.5417 25.64ZM64.5017 19.86C64.9417 19.86 65.2417 20.04 65.2417 20.68V24.06C65.2417 24.7 64.9417 24.88 64.5017 24.88H63.5817V19.86H64.5017ZM65.4817 31.28C65.4817 31.9 65.1617 32.08 64.7217 32.08H63.5817V26.8H64.7217C65.1617 26.8 65.4817 26.96 65.4817 27.6V31.28ZM72.1848 32.08V26.66H74.8048V24.74H72.1848V19.86H75.2048V17.94H69.7648V34H75.3048V32.08H72.1848ZM85.5411 34H88.1611L85.3011 24.52L88.0811 17.94H85.5211L83.1411 24.38V17.94H80.7211V34H83.1411V28.42L83.7611 26.66L85.5411 34ZM93.4833 34H96.1433L93.9633 17.94H90.7233L88.5433 34H91.2033L91.4433 31.12H93.2433L93.4833 34ZM91.6033 29.2L92.1633 22.6L92.3433 20.54L92.5233 22.6L93.0833 29.2H91.6033ZM101.877 17.94L102.097 25.06L102.177 27.36L101.597 25.06L99.5972 17.94H97.5172V34H99.9372L99.7172 26.6L99.6372 24.68L100.117 26.6L102.217 34H104.297V17.94H101.877ZM110.611 34H113.271L111.091 17.94H107.851L105.671 34H108.331L108.571 31.12H110.371L110.611 34ZM108.731 29.2L109.291 22.6L109.471 20.54L109.651 22.6L110.211 29.2H108.731ZM117.065 32.08V17.94H114.645V34H120.045V32.08H117.065ZM121.491 17.94V34H123.911V17.94H121.491ZM136.069 17.94H133.209L131.409 27L131.089 28.96L130.749 27L128.969 17.94H126.109V34H128.509L128.289 26.54L128.149 23.18L128.789 26.54L130.389 33.94H131.789L133.389 26.54L134.009 23.2L133.889 26.54L133.669 34H136.069V17.94ZM138.267 17.94V34H140.687V17.94H138.267ZM148.606 17.94H142.426V19.86H145.886L142.146 33.04V34H148.406V32.08H144.846L148.606 18.9V17.94Z" fill="black"/>
</svg>
