<svg width="309" height="195" viewBox="0 0 309 195" fill="none" xmlns="http://www.w3.org/2000/svg">
<path opacity="0.8" d="M10.08 148.2V158H9.1V149.684L5.67 155.424H5.53L2.1 149.684V158H1.12V148.2H2.338L5.6 153.66L8.862 148.2H10.08ZM15.4113 150.832C16.4473 150.832 17.2826 151.201 17.9173 151.938C18.5613 152.666 18.8833 153.529 18.8833 154.528C18.8833 154.631 18.8739 154.775 18.8553 154.962H12.7093C12.8026 155.671 13.1013 156.236 13.6053 156.656C14.1186 157.067 14.7486 157.272 15.4953 157.272C16.0273 157.272 16.4846 157.165 16.8673 156.95C17.2593 156.726 17.5533 156.437 17.7493 156.082L18.5613 156.558C18.2533 157.053 17.8333 157.445 17.3013 157.734C16.7693 158.023 16.1626 158.168 15.4813 158.168C14.3799 158.168 13.4839 157.823 12.7933 157.132C12.1026 156.441 11.7573 155.564 11.7573 154.5C11.7573 153.455 12.0979 152.582 12.7793 151.882C13.4606 151.182 14.3379 150.832 15.4113 150.832ZM15.4113 151.728C14.6833 151.728 14.0719 151.947 13.5773 152.386C13.0919 152.815 12.8026 153.375 12.7093 154.066H17.9313C17.8379 153.329 17.5533 152.755 17.0773 152.344C16.6013 151.933 16.0459 151.728 15.4113 151.728ZM23.629 150.832C24.4784 150.832 25.1457 151.093 25.631 151.616C26.1257 152.129 26.373 152.825 26.373 153.702V158H25.449V153.702C25.449 153.077 25.281 152.591 24.945 152.246C24.6184 151.901 24.1517 151.728 23.545 151.728C22.873 151.728 22.327 151.943 21.907 152.372C21.487 152.792 21.277 153.445 21.277 154.332V158H20.353V148.2H21.277V152.092C21.7997 151.252 22.5837 150.832 23.629 150.832ZM35.6217 150.832C36.4057 150.832 37.0357 151.084 37.5117 151.588C37.997 152.092 38.2397 152.773 38.2397 153.632V158H37.3157V153.632C37.3157 153.025 37.157 152.559 36.8397 152.232C36.5317 151.896 36.121 151.728 35.6077 151.728C35.029 151.728 34.5577 151.924 34.1937 152.316C33.839 152.699 33.6617 153.301 33.6617 154.122V158H32.7377V153.632C32.7377 153.016 32.5884 152.545 32.2897 152.218C32.0004 151.891 31.6037 151.728 31.0997 151.728C30.5397 151.728 30.0637 151.924 29.6717 152.316C29.2797 152.708 29.0837 153.31 29.0837 154.122V158H28.1597V151H29.0837V152.022C29.5877 151.229 30.3017 150.832 31.2257 150.832C32.2337 150.832 32.943 151.257 33.3537 152.106C33.8577 151.257 34.6137 150.832 35.6217 150.832ZM45.8929 157.118C45.1835 157.818 44.3155 158.168 43.2889 158.168C42.2622 158.168 41.3895 157.818 40.6709 157.118C39.9615 156.409 39.6069 155.536 39.6069 154.5C39.6069 153.464 39.9615 152.596 40.6709 151.896C41.3895 151.187 42.2622 150.832 43.2889 150.832C44.3155 150.832 45.1835 151.187 45.8929 151.896C46.6115 152.596 46.9709 153.464 46.9709 154.5C46.9709 155.536 46.6115 156.409 45.8929 157.118ZM41.3289 156.474C41.8609 157.006 42.5142 157.272 43.2889 157.272C44.0635 157.272 44.7169 157.006 45.2489 156.474C45.7809 155.933 46.0469 155.275 46.0469 154.5C46.0469 153.725 45.7809 153.072 45.2489 152.54C44.7169 151.999 44.0635 151.728 43.2889 151.728C42.5142 151.728 41.8609 151.999 41.3289 152.54C40.7969 153.072 40.5309 153.725 40.5309 154.5C40.5309 155.275 40.7969 155.933 41.3289 156.474ZM51.7931 150.832C52.6424 150.832 53.3098 151.093 53.7951 151.616C54.2898 152.129 54.5371 152.825 54.5371 153.702V158H53.6131V153.702C53.6131 153.077 53.4451 152.591 53.1091 152.246C52.7824 151.901 52.3158 151.728 51.7091 151.728C51.0371 151.728 50.4911 151.943 50.0711 152.372C49.6511 152.792 49.4411 153.445 49.4411 154.332V158H48.5171V151H49.4411V152.092C49.9638 151.252 50.7478 150.832 51.7931 150.832Z" fill="white"/>
<path d="M17.08 188H11.984L8.68 182.344L5.376 188H0.28L6.132 177.948L0.56 168.4H5.656L8.68 173.58L11.704 168.4H16.8L11.228 177.948L17.08 188ZM27.9473 174H32.1473V188H27.9473V186.684C27.1073 187.823 25.7726 188.392 23.9433 188.392C22.4499 188.392 21.1993 187.879 20.1913 186.852C19.2019 185.825 18.7073 184.407 18.7073 182.596V174H22.9073V181.98C22.9073 182.801 23.1313 183.436 23.5793 183.884C24.0459 184.313 24.6339 184.528 25.3433 184.528C26.1459 184.528 26.7806 184.285 27.2473 183.8C27.7139 183.315 27.9473 182.596 27.9473 181.644V174ZM39.4275 176.492C39.6888 175.596 40.2115 174.915 40.9955 174.448C41.7982 173.963 42.6755 173.72 43.6275 173.72V178.48C42.6008 178.312 41.6395 178.489 40.7435 179.012C39.8662 179.516 39.4275 180.403 39.4275 181.672V188H35.2275V174H39.4275V176.492ZM49.1566 178.088C49.1566 178.368 49.39 178.601 49.8566 178.788C50.342 178.956 50.9206 179.133 51.5926 179.32C52.2646 179.488 52.9366 179.712 53.6086 179.992C54.2806 180.272 54.85 180.739 55.3166 181.392C55.802 182.027 56.0446 182.829 56.0446 183.8C56.0446 185.312 55.4846 186.46 54.3646 187.244C53.2446 188.009 51.8633 188.392 50.2206 188.392C47.2713 188.392 45.2646 187.281 44.2006 185.06L47.8406 182.988C48.214 184.089 49.0073 184.64 50.2206 184.64C51.2286 184.64 51.7326 184.351 51.7326 183.772C51.7326 183.492 51.49 183.259 51.0046 183.072C50.538 182.885 49.9686 182.708 49.2966 182.54C48.6246 182.353 47.9526 182.12 47.2806 181.84C46.6086 181.541 46.03 181.084 45.5446 180.468C45.078 179.852 44.8446 179.096 44.8446 178.2C44.8446 176.744 45.3673 175.615 46.4126 174.812C47.4766 174.009 48.7833 173.608 50.3326 173.608C51.49 173.608 52.5446 173.869 53.4966 174.392C54.4486 174.896 55.214 175.633 55.7926 176.604L52.2086 178.536C51.7606 177.715 51.1353 177.304 50.3326 177.304C49.5486 177.304 49.1566 177.565 49.1566 178.088ZM66.3456 173.608C67.8389 173.608 69.0802 174.121 70.0696 175.148C71.0776 176.175 71.5816 177.593 71.5816 179.404V188H67.3816V180.02C67.3816 179.199 67.1482 178.573 66.6816 178.144C66.2336 177.696 65.6549 177.472 64.9456 177.472C64.1429 177.472 63.5082 177.715 63.0416 178.2C62.5749 178.685 62.3416 179.404 62.3416 180.356V188H58.1416V168.4H62.3416V175.316C63.1816 174.177 64.5162 173.608 66.3456 173.608ZM78.3298 172.04C77.8444 172.525 77.2564 172.768 76.5658 172.768C75.8751 172.768 75.2778 172.525 74.7738 172.04C74.2884 171.536 74.0458 170.939 74.0458 170.248C74.0458 169.557 74.2884 168.969 74.7738 168.484C75.2778 167.98 75.8751 167.728 76.5658 167.728C77.2564 167.728 77.8444 167.98 78.3298 168.484C78.8338 168.969 79.0858 169.557 79.0858 170.248C79.0858 170.939 78.8338 171.536 78.3298 172.04ZM74.4658 188V174H78.6658V188H74.4658ZM91.9032 168.4H96.1032V188H91.9032V186.684C90.9139 187.823 89.5232 188.392 87.7312 188.392C85.8832 188.392 84.3059 187.683 82.9992 186.264C81.6926 184.827 81.0392 183.072 81.0392 181C81.0392 178.928 81.6926 177.183 82.9992 175.764C84.3059 174.327 85.8832 173.608 87.7312 173.608C89.5232 173.608 90.9139 174.177 91.9032 175.316V168.4ZM86.1632 183.492C86.7792 184.108 87.5819 184.416 88.5712 184.416C89.5606 184.416 90.3632 184.108 90.9792 183.492C91.5952 182.876 91.9032 182.045 91.9032 181C91.9032 179.955 91.5952 179.124 90.9792 178.508C90.3632 177.892 89.5606 177.584 88.5712 177.584C87.5819 177.584 86.7792 177.892 86.1632 178.508C85.5472 179.124 85.2392 179.955 85.2392 181C85.2392 182.045 85.5472 182.876 86.1632 183.492ZM125.925 168.4V188H121.445V176.604L116.377 184.92H115.873L110.805 176.604V188H106.325V168.4H110.805L116.125 177.108L121.445 168.4H125.925ZM139.317 174H143.517V188H139.317V186.684C138.328 187.823 136.937 188.392 135.145 188.392C133.297 188.392 131.72 187.683 130.413 186.264C129.107 184.827 128.453 183.072 128.453 181C128.453 178.928 129.107 177.183 130.413 175.764C131.72 174.327 133.297 173.608 135.145 173.608C136.937 173.608 138.328 174.177 139.317 175.316V174ZM133.577 183.492C134.193 184.108 134.996 184.416 135.985 184.416C136.975 184.416 137.777 184.108 138.393 183.492C139.009 182.876 139.317 182.045 139.317 181C139.317 179.955 139.009 179.124 138.393 178.508C137.777 177.892 136.975 177.584 135.985 177.584C134.996 177.584 134.193 177.892 133.577 178.508C132.961 179.124 132.653 179.955 132.653 181C132.653 182.045 132.961 182.876 133.577 183.492ZM150.799 176.492C151.06 175.596 151.583 174.915 152.367 174.448C153.169 173.963 154.047 173.72 154.999 173.72V178.48C153.972 178.312 153.011 178.489 152.115 179.012C151.237 179.516 150.799 180.403 150.799 181.672V188H146.599V174H150.799V176.492ZM168.536 186.264C167.098 187.683 165.344 188.392 163.272 188.392C161.2 188.392 159.445 187.683 158.008 186.264C156.57 184.827 155.852 183.072 155.852 181C155.852 178.928 156.57 177.183 158.008 175.764C159.445 174.327 161.2 173.608 163.272 173.608C165.344 173.608 167.098 174.327 168.536 175.764C169.973 177.183 170.692 178.928 170.692 181C170.692 183.072 169.973 184.827 168.536 186.264ZM160.976 183.38C161.592 183.996 162.357 184.304 163.272 184.304C164.186 184.304 164.952 183.996 165.568 183.38C166.184 182.764 166.492 181.971 166.492 181C166.492 180.029 166.184 179.236 165.568 178.62C164.952 178.004 164.186 177.696 163.272 177.696C162.357 177.696 161.592 178.004 160.976 178.62C160.36 179.236 160.052 180.029 160.052 181C160.052 181.971 160.36 182.764 160.976 183.38ZM177.428 184.08H183V188H171.8V185.2L177.092 177.92H172.08V174H182.72V176.8L177.428 184.08ZM189.373 172.04C188.887 172.525 188.299 172.768 187.609 172.768C186.918 172.768 186.321 172.525 185.817 172.04C185.331 171.536 185.089 170.939 185.089 170.248C185.089 169.557 185.331 168.969 185.817 168.484C186.321 167.98 186.918 167.728 187.609 167.728C188.299 167.728 188.887 167.98 189.373 168.484C189.877 168.969 190.129 169.557 190.129 170.248C190.129 170.939 189.877 171.536 189.373 172.04ZM185.509 188V174H189.709V188H185.509ZM202.946 174H207.146V193.6H202.946V186.684C201.957 187.823 200.566 188.392 198.774 188.392C196.926 188.392 195.349 187.683 194.042 186.264C192.736 184.827 192.082 183.072 192.082 181C192.082 178.928 192.736 177.183 194.042 175.764C195.349 174.327 196.926 173.608 198.774 173.608C200.566 173.608 201.957 174.177 202.946 175.316V174ZM197.206 183.492C197.822 184.108 198.625 184.416 199.614 184.416C200.604 184.416 201.406 184.108 202.022 183.492C202.638 182.876 202.946 182.045 202.946 181C202.946 179.955 202.638 179.124 202.022 178.508C201.406 177.892 200.604 177.584 199.614 177.584C198.625 177.584 197.822 177.892 197.206 178.508C196.59 179.124 196.282 179.955 196.282 181C196.282 182.045 196.59 182.876 197.206 183.492ZM222.212 186.264C220.774 187.683 219.02 188.392 216.948 188.392C214.876 188.392 213.121 187.683 211.684 186.264C210.246 184.827 209.528 183.072 209.528 181C209.528 178.928 210.246 177.183 211.684 175.764C213.121 174.327 214.876 173.608 216.948 173.608C219.02 173.608 220.774 174.327 222.212 175.764C223.649 177.183 224.368 178.928 224.368 181C224.368 183.072 223.649 184.827 222.212 186.264ZM214.652 183.38C215.268 183.996 216.033 184.304 216.948 184.304C217.862 184.304 218.628 183.996 219.244 183.38C219.86 182.764 220.168 181.971 220.168 181C220.168 180.029 219.86 179.236 219.244 178.62C218.628 178.004 217.862 177.696 216.948 177.696C216.033 177.696 215.268 178.004 214.652 178.62C214.036 179.236 213.728 180.029 213.728 181C213.728 181.971 214.036 182.764 214.652 183.38ZM235.128 174H239.776L234.596 188H229.836L224.656 174H229.304L232.216 182.876L235.128 174Z" fill="white"/>
<path d="M279 56.0631C272.038 56.0631 265.361 53.3067 260.438 48.4002C255.516 43.4937 252.75 36.8391 252.75 29.9003C252.75 22.9615 255.516 16.3069 260.438 11.4004C265.361 6.49397 272.038 3.73754 279 3.73754C285.962 3.73754 292.639 6.49397 297.562 11.4004C302.484 16.3069 305.25 22.9615 305.25 29.9003C305.25 36.8391 302.484 43.4937 297.562 48.4002C292.639 53.3067 285.962 56.0631 279 56.0631ZM279 59.8007C286.956 59.8007 294.587 56.6505 300.213 51.0431C305.839 45.4357 309 37.8304 309 29.9003C309 21.9703 305.839 14.365 300.213 8.7576C294.587 3.1502 286.956 0 279 0C271.044 0 263.413 3.1502 257.787 8.7576C252.161 14.365 249 21.9703 249 29.9003C249 37.8304 252.161 45.4357 257.787 51.0431C263.413 56.6505 271.044 59.8007 279 59.8007Z" fill="#FFD369"/>
<path d="M272.516 18.8935C272.823 18.7361 273.167 18.6661 273.511 18.6911C273.855 18.7162 274.186 18.8354 274.466 19.0355L287.591 28.3794C287.834 28.5522 288.032 28.7805 288.169 29.0451C288.306 29.3096 288.377 29.603 288.377 29.9006C288.377 30.1982 288.306 30.4915 288.169 30.7561C288.032 31.0206 287.834 31.2489 287.591 31.4217L274.466 40.7656C274.186 40.9656 273.856 41.0847 273.512 41.1097C273.168 41.1348 272.824 41.0649 272.517 40.9076C272.211 40.7504 271.953 40.512 271.774 40.2185C271.595 39.9251 271.5 39.588 271.5 39.2444V20.5567C271.5 20.2132 271.594 19.8762 271.774 19.5827C271.953 19.2893 272.21 19.0508 272.516 18.8935Z" fill="#FFD369"/>
</svg>
