<svg width="648" height="400" viewBox="0 0 648 400" fill="none" xmlns="http://www.w3.org/2000/svg">
<rect opacity="0.5" x="0.000244141" width="648" height="400" fill="black"/>
<path opacity="0.8" d="M55.08 318.2V328H54.1V319.684L50.67 325.424H50.53L47.1 319.684V328H46.12V318.2H47.338L50.6 323.66L53.862 318.2H55.08ZM60.4113 320.832C61.4473 320.832 62.2826 321.201 62.9173 321.938C63.5613 322.666 63.8833 323.529 63.8833 324.528C63.8833 324.631 63.8739 324.775 63.8553 324.962H57.7093C57.8026 325.671 58.1013 326.236 58.6053 326.656C59.1186 327.067 59.7486 327.272 60.4953 327.272C61.0273 327.272 61.4846 327.165 61.8673 326.95C62.2593 326.726 62.5533 326.437 62.7493 326.082L63.5613 326.558C63.2533 327.053 62.8333 327.445 62.3013 327.734C61.7693 328.023 61.1626 328.168 60.4813 328.168C59.3799 328.168 58.4839 327.823 57.7933 327.132C57.1026 326.441 56.7573 325.564 56.7573 324.5C56.7573 323.455 57.0979 322.582 57.7793 321.882C58.4606 321.182 59.3379 320.832 60.4113 320.832ZM60.4113 321.728C59.6833 321.728 59.0719 321.947 58.5773 322.386C58.0919 322.815 57.8026 323.375 57.7093 324.066H62.9313C62.8379 323.329 62.5533 322.755 62.0773 322.344C61.6013 321.933 61.0459 321.728 60.4113 321.728ZM68.629 320.832C69.4784 320.832 70.1457 321.093 70.631 321.616C71.1257 322.129 71.373 322.825 71.373 323.702V328H70.449V323.702C70.449 323.077 70.281 322.591 69.945 322.246C69.6184 321.901 69.1517 321.728 68.545 321.728C67.873 321.728 67.327 321.943 66.907 322.372C66.487 322.792 66.277 323.445 66.277 324.332V328H65.353V318.2H66.277V322.092C66.7997 321.252 67.5837 320.832 68.629 320.832ZM80.6217 320.832C81.4057 320.832 82.0357 321.084 82.5117 321.588C82.997 322.092 83.2397 322.773 83.2397 323.632V328H82.3157V323.632C82.3157 323.025 82.157 322.559 81.8397 322.232C81.5317 321.896 81.121 321.728 80.6077 321.728C80.029 321.728 79.5577 321.924 79.1937 322.316C78.839 322.699 78.6617 323.301 78.6617 324.122V328H77.7377V323.632C77.7377 323.016 77.5884 322.545 77.2897 322.218C77.0004 321.891 76.6037 321.728 76.0997 321.728C75.5397 321.728 75.0637 321.924 74.6717 322.316C74.2797 322.708 74.0837 323.31 74.0837 324.122V328H73.1597V321H74.0837V322.022C74.5877 321.229 75.3017 320.832 76.2257 320.832C77.2337 320.832 77.943 321.257 78.3537 322.106C78.8577 321.257 79.6137 320.832 80.6217 320.832ZM90.8929 327.118C90.1835 327.818 89.3155 328.168 88.2889 328.168C87.2622 328.168 86.3895 327.818 85.6709 327.118C84.9615 326.409 84.6069 325.536 84.6069 324.5C84.6069 323.464 84.9615 322.596 85.6709 321.896C86.3895 321.187 87.2622 320.832 88.2889 320.832C89.3155 320.832 90.1835 321.187 90.8929 321.896C91.6115 322.596 91.9709 323.464 91.9709 324.5C91.9709 325.536 91.6115 326.409 90.8929 327.118ZM86.3289 326.474C86.8609 327.006 87.5142 327.272 88.2889 327.272C89.0635 327.272 89.7169 327.006 90.2489 326.474C90.7809 325.933 91.0469 325.275 91.0469 324.5C91.0469 323.725 90.7809 323.072 90.2489 322.54C89.7169 321.999 89.0635 321.728 88.2889 321.728C87.5142 321.728 86.8609 321.999 86.3289 322.54C85.7969 323.072 85.5309 323.725 85.5309 324.5C85.5309 325.275 85.7969 325.933 86.3289 326.474ZM96.7931 320.832C97.6424 320.832 98.3098 321.093 98.7951 321.616C99.2898 322.129 99.5371 322.825 99.5371 323.702V328H98.6131V323.702C98.6131 323.077 98.4451 322.591 98.1091 322.246C97.7824 321.901 97.3158 321.728 96.7091 321.728C96.0371 321.728 95.4911 321.943 95.0711 322.372C94.6511 322.792 94.4411 323.445 94.4411 324.332V328H93.5171V321H94.4411V322.092C94.9638 321.252 95.7478 320.832 96.7931 320.832Z" fill="white"/>
<path d="M62.08 358H56.984L53.68 352.344L50.376 358H45.28L51.132 347.948L45.56 338.4H50.656L53.68 343.58L56.704 338.4H61.8L56.228 347.948L62.08 358ZM72.9473 344H77.1473V358H72.9473V356.684C72.1073 357.823 70.7726 358.392 68.9433 358.392C67.4499 358.392 66.1993 357.879 65.1913 356.852C64.2019 355.825 63.7073 354.407 63.7073 352.596V344H67.9073V351.98C67.9073 352.801 68.1313 353.436 68.5793 353.884C69.0459 354.313 69.6339 354.528 70.3433 354.528C71.1459 354.528 71.7806 354.285 72.2473 353.8C72.7139 353.315 72.9473 352.596 72.9473 351.644V344ZM84.4275 346.492C84.6888 345.596 85.2115 344.915 85.9955 344.448C86.7982 343.963 87.6755 343.72 88.6275 343.72V348.48C87.6008 348.312 86.6395 348.489 85.7435 349.012C84.8662 349.516 84.4275 350.403 84.4275 351.672V358H80.2275V344H84.4275V346.492ZM94.1566 348.088C94.1566 348.368 94.39 348.601 94.8566 348.788C95.342 348.956 95.9206 349.133 96.5926 349.32C97.2646 349.488 97.9366 349.712 98.6086 349.992C99.2806 350.272 99.85 350.739 100.317 351.392C100.802 352.027 101.045 352.829 101.045 353.8C101.045 355.312 100.485 356.46 99.3646 357.244C98.2446 358.009 96.8633 358.392 95.2206 358.392C92.2713 358.392 90.2646 357.281 89.2006 355.06L92.8406 352.988C93.214 354.089 94.0073 354.64 95.2206 354.64C96.2286 354.64 96.7326 354.351 96.7326 353.772C96.7326 353.492 96.49 353.259 96.0046 353.072C95.538 352.885 94.9686 352.708 94.2966 352.54C93.6246 352.353 92.9526 352.12 92.2806 351.84C91.6086 351.541 91.03 351.084 90.5446 350.468C90.078 349.852 89.8446 349.096 89.8446 348.2C89.8446 346.744 90.3673 345.615 91.4126 344.812C92.4766 344.009 93.7833 343.608 95.3326 343.608C96.49 343.608 97.5446 343.869 98.4966 344.392C99.4486 344.896 100.214 345.633 100.793 346.604L97.2086 348.536C96.7606 347.715 96.1353 347.304 95.3326 347.304C94.5486 347.304 94.1566 347.565 94.1566 348.088ZM111.346 343.608C112.839 343.608 114.08 344.121 115.07 345.148C116.078 346.175 116.582 347.593 116.582 349.404V358H112.382V350.02C112.382 349.199 112.148 348.573 111.682 348.144C111.234 347.696 110.655 347.472 109.946 347.472C109.143 347.472 108.508 347.715 108.042 348.2C107.575 348.685 107.342 349.404 107.342 350.356V358H103.142V338.4H107.342V345.316C108.182 344.177 109.516 343.608 111.346 343.608ZM123.33 342.04C122.844 342.525 122.256 342.768 121.566 342.768C120.875 342.768 120.278 342.525 119.774 342.04C119.288 341.536 119.046 340.939 119.046 340.248C119.046 339.557 119.288 338.969 119.774 338.484C120.278 337.98 120.875 337.728 121.566 337.728C122.256 337.728 122.844 337.98 123.33 338.484C123.834 338.969 124.086 339.557 124.086 340.248C124.086 340.939 123.834 341.536 123.33 342.04ZM119.466 358V344H123.666V358H119.466ZM136.903 338.4H141.103V358H136.903V356.684C135.914 357.823 134.523 358.392 132.731 358.392C130.883 358.392 129.306 357.683 127.999 356.264C126.693 354.827 126.039 353.072 126.039 351C126.039 348.928 126.693 347.183 127.999 345.764C129.306 344.327 130.883 343.608 132.731 343.608C134.523 343.608 135.914 344.177 136.903 345.316V338.4ZM131.163 353.492C131.779 354.108 132.582 354.416 133.571 354.416C134.561 354.416 135.363 354.108 135.979 353.492C136.595 352.876 136.903 352.045 136.903 351C136.903 349.955 136.595 349.124 135.979 348.508C135.363 347.892 134.561 347.584 133.571 347.584C132.582 347.584 131.779 347.892 131.163 348.508C130.547 349.124 130.239 349.955 130.239 351C130.239 352.045 130.547 352.876 131.163 353.492ZM170.925 338.4V358H166.445V346.604L161.377 354.92H160.873L155.805 346.604V358H151.325V338.4H155.805L161.125 347.108L166.445 338.4H170.925ZM184.317 344H188.517V358H184.317V356.684C183.328 357.823 181.937 358.392 180.145 358.392C178.297 358.392 176.72 357.683 175.413 356.264C174.107 354.827 173.453 353.072 173.453 351C173.453 348.928 174.107 347.183 175.413 345.764C176.72 344.327 178.297 343.608 180.145 343.608C181.937 343.608 183.328 344.177 184.317 345.316V344ZM178.577 353.492C179.193 354.108 179.996 354.416 180.985 354.416C181.975 354.416 182.777 354.108 183.393 353.492C184.009 352.876 184.317 352.045 184.317 351C184.317 349.955 184.009 349.124 183.393 348.508C182.777 347.892 181.975 347.584 180.985 347.584C179.996 347.584 179.193 347.892 178.577 348.508C177.961 349.124 177.653 349.955 177.653 351C177.653 352.045 177.961 352.876 178.577 353.492ZM195.799 346.492C196.06 345.596 196.583 344.915 197.367 344.448C198.169 343.963 199.047 343.72 199.999 343.72V348.48C198.972 348.312 198.011 348.489 197.115 349.012C196.237 349.516 195.799 350.403 195.799 351.672V358H191.599V344H195.799V346.492ZM213.536 356.264C212.098 357.683 210.344 358.392 208.272 358.392C206.2 358.392 204.445 357.683 203.008 356.264C201.57 354.827 200.852 353.072 200.852 351C200.852 348.928 201.57 347.183 203.008 345.764C204.445 344.327 206.2 343.608 208.272 343.608C210.344 343.608 212.098 344.327 213.536 345.764C214.973 347.183 215.692 348.928 215.692 351C215.692 353.072 214.973 354.827 213.536 356.264ZM205.976 353.38C206.592 353.996 207.357 354.304 208.272 354.304C209.186 354.304 209.952 353.996 210.568 353.38C211.184 352.764 211.492 351.971 211.492 351C211.492 350.029 211.184 349.236 210.568 348.62C209.952 348.004 209.186 347.696 208.272 347.696C207.357 347.696 206.592 348.004 205.976 348.62C205.36 349.236 205.052 350.029 205.052 351C205.052 351.971 205.36 352.764 205.976 353.38ZM222.428 354.08H228V358H216.8V355.2L222.092 347.92H217.08V344H227.72V346.8L222.428 354.08ZM234.373 342.04C233.887 342.525 233.299 342.768 232.609 342.768C231.918 342.768 231.321 342.525 230.817 342.04C230.331 341.536 230.089 340.939 230.089 340.248C230.089 339.557 230.331 338.969 230.817 338.484C231.321 337.98 231.918 337.728 232.609 337.728C233.299 337.728 233.887 337.98 234.373 338.484C234.877 338.969 235.129 339.557 235.129 340.248C235.129 340.939 234.877 341.536 234.373 342.04ZM230.509 358V344H234.709V358H230.509ZM247.946 344H252.146V363.6H247.946V356.684C246.957 357.823 245.566 358.392 243.774 358.392C241.926 358.392 240.349 357.683 239.042 356.264C237.736 354.827 237.082 353.072 237.082 351C237.082 348.928 237.736 347.183 239.042 345.764C240.349 344.327 241.926 343.608 243.774 343.608C245.566 343.608 246.957 344.177 247.946 345.316V344ZM242.206 353.492C242.822 354.108 243.625 354.416 244.614 354.416C245.604 354.416 246.406 354.108 247.022 353.492C247.638 352.876 247.946 352.045 247.946 351C247.946 349.955 247.638 349.124 247.022 348.508C246.406 347.892 245.604 347.584 244.614 347.584C243.625 347.584 242.822 347.892 242.206 348.508C241.59 349.124 241.282 349.955 241.282 351C241.282 352.045 241.59 352.876 242.206 353.492ZM267.212 356.264C265.774 357.683 264.02 358.392 261.948 358.392C259.876 358.392 258.121 357.683 256.684 356.264C255.246 354.827 254.528 353.072 254.528 351C254.528 348.928 255.246 347.183 256.684 345.764C258.121 344.327 259.876 343.608 261.948 343.608C264.02 343.608 265.774 344.327 267.212 345.764C268.649 347.183 269.368 348.928 269.368 351C269.368 353.072 268.649 354.827 267.212 356.264ZM259.652 353.38C260.268 353.996 261.033 354.304 261.948 354.304C262.862 354.304 263.628 353.996 264.244 353.38C264.86 352.764 265.168 351.971 265.168 351C265.168 350.029 264.86 349.236 264.244 348.62C263.628 348.004 262.862 347.696 261.948 347.696C261.033 347.696 260.268 348.004 259.652 348.62C259.036 349.236 258.728 350.029 258.728 351C258.728 351.971 259.036 352.764 259.652 353.38ZM280.128 344H284.776L279.596 358H274.836L269.656 344H274.304L277.216 352.876L280.128 344Z" fill="white"/>
<path d="M324 226.063C317.038 226.063 310.361 223.307 305.438 218.4C300.516 213.494 297.75 206.839 297.75 199.9C297.75 192.962 300.516 186.307 305.438 181.4C310.361 176.494 317.038 173.738 324 173.738C330.962 173.738 337.639 176.494 342.562 181.4C347.484 186.307 350.25 192.962 350.25 199.9C350.25 206.839 347.484 213.494 342.562 218.4C337.639 223.307 330.962 226.063 324 226.063ZM324 229.801C331.956 229.801 339.587 226.65 345.213 221.043C350.839 215.436 354 207.83 354 199.9C354 191.97 350.839 184.365 345.213 178.758C339.587 173.15 331.956 170 324 170C316.044 170 308.413 173.15 302.787 178.758C297.161 184.365 294 191.97 294 199.9C294 207.83 297.161 215.436 302.787 221.043C308.413 226.65 316.044 229.801 324 229.801V229.801Z" fill="#FFD369"/>
<path d="M317.516 188.893C317.823 188.736 318.167 188.666 318.511 188.691C318.855 188.716 319.186 188.835 319.466 189.036L332.591 198.379C332.834 198.552 333.032 198.78 333.169 199.045C333.306 199.31 333.377 199.603 333.377 199.901C333.377 200.198 333.306 200.491 333.169 200.756C333.032 201.021 332.834 201.249 332.591 201.422L319.466 210.766C319.186 210.966 318.856 211.085 318.512 211.11C318.168 211.135 317.824 211.065 317.517 210.908C317.211 210.75 316.953 210.512 316.774 210.219C316.595 209.925 316.5 209.588 316.5 209.244V190.557C316.5 190.213 316.594 189.876 316.774 189.583C316.953 189.289 317.21 189.051 317.516 188.893V188.893Z" fill="#FFD369"/>
</svg>
