<svg width="131" height="34" viewBox="0 0 131 34" fill="none" xmlns="http://www.w3.org/2000/svg">
<circle cx="16.7567" cy="17.2433" r="16.2567" stroke="#A4A7B1"/>
<path d="M22.008 13.6895L20.1988 22.2213C20.0624 22.8235 19.7064 22.9733 19.2006 22.6897L16.4441 20.6584L15.114 21.9376C14.9668 22.0848 14.8437 22.2079 14.56 22.2079L14.7581 19.4006L19.867 14.7841C20.0891 14.5861 19.8188 14.4763 19.5218 14.6744L13.2059 18.6512L10.4868 17.8002C9.89538 17.6155 9.88467 17.2087 10.6099 16.9251L21.2452 12.8278C21.7377 12.6431 22.1685 12.9375 22.008 13.6895Z" fill="#A4A7B1"/>
<circle cx="65.2698" cy="17.2433" r="16.2567" stroke="#A4A7B1"/>
<path d="M64.0386 22.2699V17.5523H62.7554V15.8537H64.0386V14.4029C64.0386 13.2629 64.7967 12.2159 66.5434 12.2159C67.2506 12.2159 67.7735 12.2818 67.7735 12.2818L67.7323 13.868C67.7323 13.868 67.199 13.863 66.617 13.863C65.9871 13.863 65.8862 14.1451 65.8862 14.6135V15.8537H67.7824L67.6999 17.5523H65.8862V22.2699H64.0386Z" fill="#A4A7B1"/>
<circle cx="113.783" cy="17.2433" r="16.2567" stroke="#A4A7B1"/>
<path fill-rule="evenodd" clip-rule="evenodd" d="M111.365 11.4133C111.991 11.3845 112.19 11.3781 113.783 11.3781C115.376 11.3781 115.576 11.3851 116.201 11.4133C116.826 11.4416 117.252 11.5413 117.625 11.6858C118.016 11.8335 118.371 12.0643 118.664 12.3629C118.962 12.6556 119.193 13.0096 119.34 13.401C119.485 13.7742 119.584 14.2007 119.613 14.8245C119.642 15.451 119.648 15.6504 119.648 17.243C119.648 18.8361 119.641 19.0355 119.613 19.6609C119.585 20.2847 119.485 20.7112 119.34 21.0844C119.193 21.4758 118.962 21.8304 118.664 22.1236C118.371 22.4221 118.016 22.6525 117.625 22.7996C117.252 22.9447 116.826 23.0438 116.202 23.0726C115.576 23.1014 115.376 23.1078 113.783 23.1078C112.19 23.1078 111.991 23.1009 111.365 23.0726C110.742 23.0444 110.315 22.9447 109.942 22.7996C109.55 22.6525 109.196 22.4218 108.903 22.1236C108.604 21.8307 108.373 21.4763 108.226 21.085C108.082 20.7118 107.982 20.2852 107.954 19.6614C107.925 19.0349 107.918 18.8355 107.918 17.243C107.918 15.6499 107.925 15.4505 107.954 14.8256C107.982 14.2007 108.082 13.7742 108.226 13.401C108.374 13.0097 108.605 12.6552 108.903 12.3624C109.196 12.0641 109.55 11.8332 109.941 11.6858C110.315 11.5413 110.741 11.4421 111.365 11.4133H111.365ZM116.153 12.469C115.535 12.4407 115.349 12.4349 113.783 12.4349C112.217 12.4349 112.032 12.4407 111.413 12.469C110.841 12.4951 110.531 12.5906 110.324 12.6711C110.051 12.7777 109.855 12.9041 109.65 13.1093C109.455 13.2986 109.305 13.5291 109.211 13.7838C109.131 13.9907 109.035 14.301 109.009 14.873C108.981 15.4915 108.975 15.6771 108.975 17.243C108.975 18.8089 108.981 18.9944 109.009 19.6129C109.035 20.185 109.131 20.4953 109.211 20.7022C109.305 20.9565 109.455 21.1873 109.65 21.3766C109.839 21.5712 110.07 21.721 110.324 21.8149C110.531 21.8954 110.841 21.9908 111.413 22.0169C112.032 22.0452 112.217 22.0511 113.783 22.0511C115.35 22.0511 115.535 22.0452 116.153 22.0169C116.725 21.9908 117.036 21.8954 117.242 21.8149C117.516 21.7082 117.712 21.5819 117.917 21.3766C118.112 21.1873 118.261 20.9565 118.355 20.7022C118.436 20.4953 118.531 20.185 118.557 19.6129C118.586 18.9944 118.591 18.8089 118.591 17.243C118.591 15.6771 118.586 15.4915 118.557 14.873C118.531 14.301 118.436 13.9907 118.355 13.7838C118.249 13.5103 118.122 13.3146 117.917 13.1093C117.728 12.9148 117.497 12.765 117.242 12.6711C117.036 12.5906 116.725 12.4951 116.153 12.469ZM113.034 19.0509C113.453 19.2251 113.918 19.2486 114.352 19.1174C114.786 18.9863 115.161 18.7086 115.412 18.3318C115.664 17.9551 115.777 17.5026 115.733 17.0516C115.688 16.6007 115.488 16.1793 115.167 15.8594C114.962 15.6549 114.715 15.4984 114.442 15.401C114.17 15.3036 113.879 15.2678 113.592 15.2962C113.304 15.3246 113.026 15.4164 112.778 15.5652C112.53 15.7139 112.317 15.9158 112.157 16.1563C111.996 16.3968 111.891 16.67 111.848 16.9561C111.806 17.2422 111.827 17.5342 111.911 17.8111C111.995 18.0879 112.139 18.3427 112.333 18.5571C112.528 18.7715 112.767 18.9401 113.034 19.0509ZM111.652 15.1114C111.932 14.8314 112.264 14.6094 112.63 14.4579C112.995 14.3064 113.387 14.2284 113.783 14.2284C114.179 14.2284 114.571 14.3064 114.937 14.4579C115.303 14.6094 115.635 14.8314 115.915 15.1114C116.195 15.3913 116.417 15.7236 116.568 16.0894C116.72 16.4551 116.798 16.8471 116.798 17.243C116.798 17.6388 116.72 18.0308 116.568 18.3966C116.417 18.7623 116.195 19.0946 115.915 19.3746C115.35 19.9399 114.583 20.2575 113.783 20.2575C112.984 20.2575 112.217 19.9399 111.652 19.3746C111.086 18.8092 110.769 18.0425 110.769 17.243C110.769 16.4435 111.086 15.6767 111.652 15.1114ZM117.466 14.6774C117.536 14.6119 117.591 14.5333 117.63 14.446C117.668 14.3587 117.689 14.2646 117.69 14.1692C117.691 14.0739 117.674 13.9792 117.638 13.8909C117.602 13.8025 117.549 13.7222 117.481 13.6548C117.414 13.5874 117.334 13.5341 117.245 13.4983C117.157 13.4624 117.062 13.4447 116.967 13.4461C116.872 13.4475 116.777 13.468 116.69 13.5064C116.603 13.5448 116.524 13.6003 116.459 13.6697C116.331 13.8046 116.262 13.9838 116.264 14.1692C116.267 14.3547 116.342 14.5318 116.473 14.6629C116.604 14.794 116.781 14.8689 116.967 14.8716C117.152 14.8743 117.331 14.8046 117.466 14.6774Z" fill="#A4A7B1"/>
</svg>
