<svg width="160" height="36" viewBox="0 0 160 36" fill="none" xmlns="http://www.w3.org/2000/svg">
<rect x="120" width="40" height="36" fill="black"/>
<path d="M148.62 13.0296C148.518 12.637 148.317 12.279 148.039 11.9915C147.76 11.704 147.413 11.497 147.032 11.3913C145.631 11 140 11 140 11C140 11 134.369 11 132.968 11.3913C132.587 11.497 132.24 11.704 131.961 11.9915C131.683 12.279 131.482 12.637 131.38 13.0296C131.118 14.5042 130.991 16.0009 131 17.5C130.991 18.9991 131.118 20.4958 131.38 21.9704C131.482 22.363 131.683 22.721 131.961 23.0085C132.24 23.296 132.587 23.503 132.968 23.6087C134.369 24 140 24 140 24C140 24 145.631 24 147.032 23.6087C147.413 23.503 147.76 23.296 148.039 23.0085C148.317 22.721 148.518 22.363 148.62 21.9704C148.882 20.4958 149.009 18.9991 149 17.5C149.009 16.0009 148.882 14.5042 148.62 13.0296ZM138.2 20.2857V14.7143L142.873 17.5L138.2 20.2857Z" fill="white"/>
<rect width="120" height="36" fill="#FFD369"/>
<path d="M14.886 11.758H13.108L12.646 15.146L12.422 17.036L12.184 15.146L11.75 11.758H9.972L11.582 18.366V23H13.276V18.366L14.886 11.758ZM15.5978 13.718V21.04C15.5978 22.552 16.1998 23.14 17.8938 23.14H17.9218C19.6158 23.14 20.2178 22.538 20.2178 21.04V13.718C20.2178 12.206 19.6158 11.618 17.9218 11.618H17.8938C16.2138 11.618 15.5978 12.22 15.5978 13.718ZM17.8938 13.004H17.9218C18.2858 13.004 18.5238 13.144 18.5238 13.578V21.18C18.5238 21.628 18.2718 21.754 17.9218 21.754H17.8938C17.5578 21.754 17.2918 21.628 17.2918 21.18V13.578C17.2918 13.13 17.5578 13.004 17.8938 13.004ZM21.662 11.758V21.04C21.662 22.552 22.25 23.14 23.888 23.14H23.916C25.554 23.14 26.142 22.538 26.142 21.04V11.758H24.448V21.18C24.448 21.628 24.224 21.754 23.916 21.754H23.888C23.58 21.754 23.356 21.628 23.356 21.18V11.758H21.662ZM31.8435 11.758H30.3315H28.6375H27.1255V13.102H28.6375V23H30.3315V13.102H31.8435V11.758ZM32.8177 11.758V21.04C32.8177 22.552 33.4057 23.14 35.0437 23.14H35.0717C36.7097 23.14 37.2977 22.538 37.2977 21.04V11.758H35.6037V21.18C35.6037 21.628 35.3797 21.754 35.0717 21.754H35.0437C34.7357 21.754 34.5117 21.628 34.5117 21.18V11.758H32.8177ZM42.5792 17.148C43.1392 16.826 43.3632 16.238 43.3632 15.314V13.858C43.3632 12.346 42.7752 11.758 41.1512 11.758H38.8132V23H41.3052C42.9432 23 43.5312 22.398 43.5312 20.9V19.066C43.5312 18.044 43.2512 17.442 42.5792 17.148ZM41.1512 13.102C41.4592 13.102 41.6692 13.228 41.6692 13.676V16.042C41.6692 16.49 41.4592 16.616 41.1512 16.616H40.5072V13.102H41.1512ZM41.8372 21.096C41.8372 21.53 41.6132 21.656 41.3052 21.656H40.5072V17.96H41.3052C41.6132 17.96 41.8372 18.072 41.8372 18.52V21.096ZM46.5294 21.656V17.862H48.3634V16.518H46.5294V13.102H48.6434V11.758H44.8354V23H48.7134V21.656H46.5294ZM55.8788 23H57.7128L55.7108 16.364L57.6568 11.758H55.8648L54.1988 16.266V11.758H52.5048V23H54.1988V19.094L54.6328 17.862L55.8788 23ZM61.4383 23H63.3003L61.7743 11.758H59.5063L57.9803 23H59.8423L60.0103 20.984H61.2703L61.4383 23ZM60.1223 19.64L60.5143 15.02L60.6403 13.578L60.7663 15.02L61.1583 19.64H60.1223ZM67.314 11.758L67.468 16.742L67.524 18.352L67.118 16.742L65.718 11.758H64.262V23H65.956L65.802 17.82L65.746 16.476L66.082 17.82L67.552 23H69.008V11.758H67.314ZM73.428 23H75.29L73.764 11.758H71.496L69.97 23H71.832L72 20.984H73.26L73.428 23ZM72.112 19.64L72.504 15.02L72.63 13.578L72.756 15.02L73.148 19.64H72.112ZM77.9457 21.656V11.758H76.2517V23H80.0317V21.656H77.9457ZM81.0434 11.758V23H82.7374V11.758H81.0434ZM91.2486 11.758H89.2466L87.9866 18.1L87.7626 19.472L87.5246 18.1L86.2786 11.758H84.2766V23H85.9566L85.8026 17.778L85.7046 15.426L86.1526 17.778L87.2726 22.958H88.2526L89.3726 17.778L89.8066 15.44L89.7226 17.778L89.5686 23H91.2486V11.758ZM92.787 11.758V23H94.481V11.758H92.787ZM100.024 11.758H95.6982V13.102H98.1202L95.5022 22.328V23H99.8842V21.656H97.3922L100.024 12.43V11.758Z" fill="black"/>
</svg>
